<?xml version="1.0" encoding="UTF-8" standalone="no" ?>
<!DOCTYPE svg PUBLIC "-//W3C//DTD SVG 1.1//EN" "http://www.w3.org/Graphics/SVG/1.1/DTD/svg11.dtd">
<svg xmlns="http://www.w3.org/2000/svg" xmlns:xlink="http://www.w3.org/1999/xlink" version="1.1" width="1080" height="1080" viewBox="0 0 1080 1080" xml:space="preserve">
<desc>Created with Fabric.js 5.2.4</desc>
<defs>
</defs>
<g transform="matrix(1 0 0 1 540 540)" id="35c9321b-548a-4932-957e-8c615f8aa80d"  >
<rect style="stroke: none; stroke-width: 1; stroke-dasharray: none; stroke-linecap: butt; stroke-dashoffset: 0; stroke-linejoin: miter; stroke-miterlimit: 4; fill: rgb(255,255,255); fill-rule: nonzero; opacity: 1; visibility: hidden;" vector-effect="non-scaling-stroke"  x="-540" y="-540" rx="0" ry="0" width="1080" height="1080" />
</g>
<g transform="matrix(1 0 0 1 540 540)" id="388b56c2-e380-48d9-b16f-74960ea5a9d7"  >
</g>
<g transform="matrix(0 -3.27 3.27 0 540 540)" id="XMLID_225_"  >
<path style="stroke: none; stroke-width: 1; stroke-dasharray: none; stroke-linecap: butt; stroke-dashoffset: 0; stroke-linejoin: miter; stroke-miterlimit: 4; fill: rgb(211,211,211); fill-rule: nonzero; opacity: 1;"  transform=" translate(-165, -165)" d="M 325.607 79.393 C 319.75 73.536 310.252 73.535 304.394 79.394 L 165.00400000000002 218.787 L 25.607 79.393 C 19.75 73.536 10.251999999999999 73.535 4.393999999999998 79.394 C -1.4640000000000013 85.25200000000001 -1.4640000000000013 94.74900000000001 4.393999999999998 100.607 L 154.398 250.607 C 157.21099999999998 253.42 161.026 255 165.004 255 C 168.98199999999997 255 172.798 253.419 175.60999999999999 250.606 L 325.606 100.606 C 331.465 94.749 331.465 85.251 325.607 79.393 z" stroke-linecap="round" />
</g>
</svg>